# xmcd CD database file generated by Grip 3.3.1
# 
# Track frame offsets:
#       150
#       39630
#       78630
#       97755
#       123623
#       144548
#       169292
#       198758
#       216383
#       235852
#       270224
# 
# Disc length: 3962 seconds
# 
# Revision: 2
# Processed by: cddbd v1.5.2PL0 Copyright (c) Steve Scherf et al.
# Submitted via: Grip 3.3.1
# 
DISCID=960f780b
DTITLE=Various Artist - Cigar Lounge 3 [CD 1)
DYEAR=2003
DGENRE=Jazz
TTITLE0=Yonderboi - Milonge Del Mar
TTITLE1=Mo'horizons - Flyin' Away
TTITLE2=Audio Lotion - As Velas
TTITLE3=Extra Gent - Lemon Squash
TTITLE4=Mystic Diversions - Chilled White Wine
TTITLE5=Monsieur Charles - Meraklon
TTITLE6=D.N.A - No More
TTITLE7=Mauracher - Meilenstein
TTITLE8=Mono Deluxe - Eastside
TTITLE9=Jereias Santiago - Priceless
TTITLE10=DJ Nob Tee - Sunny
EXTD=YEAR: 2003
EXTT0=
EXTT1=
EXTT2=
EXTT3=
EXTT4=
EXTT5=
EXTT6=
EXTT7=
EXTT8=
EXTT9=
EXTT10=
PLAYORDER=
